<svg xmlns="http://www.w3.org/2000/svg" viewBox="0 0 162.73 185.09"><defs><style>.cls-1{fill:#3db351;}.cls-2,.cls-3,.cls-4{fill:none;stroke-miterlimit:10;}.cls-2,.cls-3{stroke:#197d2a;}.cls-2,.cls-4{stroke-width:13px;}.cls-3{stroke-width:12px;}.cls-4{stroke:#3db351;}.cls-5{fill:#e47862;}.cls-6{fill:#c85e41;}.cls-7{fill:#197d2a;}</style></defs><title>Asset 9_cloudponics</title><g id="Layer_2" data-name="Layer 2"><g id="Layer_11" data-name="Layer 11"><polygon class="cls-1" points="42.8 47.88 74.84 50.32 73.71 70.44 41.26 56.59 42.8 47.88"/><path class="cls-2" d="M84.2,115.79c8.14-4.24,12.08-9.25,14.18-13.29C106.9,86,100.11,71,100.19,67"/><path class="cls-3" d="M136.68,9.43c10-4,12.57-3.82,13.28-2.82,1.24,1.74-3.37,5.46-8.32,14.35-3.33,6-5.22,12-9,24-2.2,6.92-2.93,10.15-6,14.52-4.26,6.15-8.55,8-9.76,8.52a19.61,19.61,0,0,1-8,1.34c-1.74,0-10.28-.13-15.05-6-3.9-4.83-3.48-10.93-3.31-13.2C92.31,27.28,126,13.75,136.68,9.43Z"/><path class="cls-2" d="M150,6.43s-34.88,20-44.6,36.82-5,24.61-5,24.61"/><path class="cls-4" d="M73.71,70.44A52.89,52.89,0,0,1,84.19,111c-1.67,10.69-6.85,22.9-18.31,35.93"/><path class="cls-4" d="M74.8,71.82s-26.92-5.44-49-28.23c-4.83-5-6.92-7.39-7-8.17C18.61,32.65,44.15,50.75,62.71,47c23.76-4.81,19,38.56-8.9,29.93s-34.2-41.24-34.2-41.24"/><path class="cls-5" d="M131.53,132.15H31.2C15.84,145,4.58,163.6,0,185.09H162.73C158.15,163.6,146.89,145,131.53,132.15Z"/><path class="cls-6" d="M131.53,132.15H81.36v52.94h81.37C158.15,163.6,146.89,145,131.53,132.15Z"/><polygon class="cls-7" points="105.3 47.38 133.3 19.38 140.3 28.38 123.3 67.38 102.3 67.38 102.3 53.38 105.3 47.38"/></g></g></svg>