<svg xmlns="http://www.w3.org/2000/svg" viewBox="0 0 349 349"><defs><style>.cls-1{fill:#fff;}.cls-2{fill:#3db351;}.cls-3,.cls-4,.cls-5{fill:none;stroke-miterlimit:10;}.cls-3,.cls-4{stroke:#197d2a;}.cls-3,.cls-5{stroke-width:13px;}.cls-4{stroke-width:12px;}.cls-5{stroke:#3db351;}.cls-6{fill:#e47862;}.cls-7{fill:#c85e41;}.cls-8{fill:#197d2a;}</style></defs><title>whitecircle_Asset 11_cloudponics</title><g id="Layer_2" data-name="Layer 2"><g id="Layer_11" data-name="Layer 11"><circle class="cls-1" cx="174.5" cy="174.5" r="174.5"/><polygon class="cls-2" points="135.94 124.83 167.97 127.27 166.84 147.39 134.4 133.54 135.94 124.83"/><path class="cls-3" d="M177.33,192.74c8.14-4.23,12.09-9.24,14.18-13.29,8.52-16.46,1.74-31.53,1.82-35.52"/><path class="cls-4" d="M229.81,86.39c10-4,12.57-3.83,13.28-2.83,1.24,1.74-3.37,5.46-8.31,14.36-3.33,6-5.22,12-9,24-2.2,6.91-2.93,10.15-6,14.51-4.26,6.15-8.55,8-9.75,8.52a19.7,19.7,0,0,1-8,1.35c-1.73,0-10.27-.14-15-6-3.91-4.83-3.49-10.93-3.31-13.2C185.44,104.24,219.08,90.71,229.81,86.39Z"/><path class="cls-3" d="M243.16,83.39s-34.87,20-44.6,36.82-5,24.6-5,24.6"/><path class="cls-5" d="M166.84,147.39A52.92,52.92,0,0,1,177.33,188c-1.67,10.69-6.85,22.91-18.32,35.94"/><path class="cls-5" d="M167.93,148.78s-26.91-5.45-49-28.23c-4.83-5-6.91-7.4-7-8.17-.23-2.77,25.3,15.32,43.86,11.56,23.76-4.82,19,38.55-8.9,29.92s-34.2-41.23-34.2-41.23"/><path class="cls-6" d="M224.67,209.11H124.34C109,222,97.71,240.56,93.13,262.05H255.86C251.28,240.56,240,222,224.67,209.11Z"/><path class="cls-7" d="M224.67,209.11H174.49v52.94h81.37C251.28,240.56,240,222,224.67,209.11Z"/><polygon class="cls-8" points="198.44 124.33 226.44 96.33 233.44 105.33 216.44 144.34 195.44 144.34 195.44 130.34 198.44 124.33"/></g></g></svg>